<svg xmlns="http://www.w3.org/2000/svg" width="546" height="257" fill="none" viewBox="0 0 546 257">
  <path stroke="#F3F3F3" stroke-width="7" d="M252 227.757c-104.776-33.009-89.224-33.009-194 0 13.097 16.804 37.654 25.705 99.865 25.225 62.211-.481 84.312-7.221 94.135-25.225Z"/>
  <path stroke="#F3F3F3" stroke-width="7" d="M58 227.757c104.776-33.009 89.224-33.009 194 0-13.097 16.804-37.654 25.705-99.865 25.225-62.211-.481-84.312-7.221-94.135-25.225Z"/>
  <path stroke="#F3F3F3" stroke-width="5" d="M194.5 228.544c0 7.568-4.047 13.447-11.065 17.558-7.097 4.156-17.117 6.398-28.435 6.398-11.318 0-21.338-2.242-28.435-6.398-7.018-4.111-11.065-9.99-11.065-17.558 0-7.544 4.019-13.186 11.016-17.074 7.096-3.943 17.127-5.97 28.484-5.97 11.357 0 21.388 2.027 28.484 5.97 6.997 3.888 11.016 9.53 11.016 17.074Z"/>
  <path stroke="#F3F3F3" stroke-width="4" d="m136 235.229 7.96-15.068L152.125 248l11.192-39L174 235.229"/>
  <path stroke="#F3F3F3" stroke-width="7" d="M486 227.757c-104.776-33.009-89.224-33.009-194 0 13.097 16.804 37.654 25.705 99.865 25.225 62.211-.481 84.312-7.221 94.135-25.225Z"/>
  <path stroke="#F3F3F3" stroke-width="7" d="M292 227.757c104.776-33.009 89.224-33.009 194 0-13.097 16.804-37.654 25.705-99.865 25.225-62.211-.481-84.312-7.221-94.135-25.225Z"/>
  <path stroke="#F3F3F3" stroke-width="5" d="M428.5 228.544c0 7.568-4.047 13.447-11.065 17.558-7.097 4.156-17.117 6.398-28.435 6.398-11.318 0-21.338-2.242-28.435-6.398-7.018-4.111-11.065-9.99-11.065-17.558 0-7.544 4.019-13.186 11.016-17.074 7.096-3.943 17.127-5.97 28.484-5.97 11.357 0 21.388 2.027 28.484 5.97 6.997 3.888 11.016 9.53 11.016 17.074Z"/>
  <path stroke="#F3F3F3" stroke-width="4" d="m371 235.229 7.75-15.068L386.701 248l10.897-39L408 235.229"/>
  <path stroke="#F3F3F3" stroke-width="7" d="M521.816 170c-65.34 28.57-439.321 23.1-482 5C-35.117 143.22 10 102 142 102l13.816-97L279 57l149-38-50 95c95-119 211.827 26.263 143.816 56Z"/>
  <path stroke="#F3F3F3" stroke-width="7" d="M211 90c43-20 39-31-9-45-22-6.417-27.6-2-38 30-13 40 4 35 47 15Z"/>
</svg>
