<svg xmlns="http://www.w3.org/2000/svg" width="247" height="91" fill="none" viewBox="0 0 247 91">
  <path fill="#fff" stroke="#000" stroke-width="7" d="M242 44.967c-128-55-109-55-237 0 16 28 46 42.83 122 42.03 76-.8 103-12.03 115-42.03Z"/>
  <path stroke="#000" stroke-width="7" d="M5 44.967c128-55 109-55 237 0-16 28-46 42.83-122 42.03-76-.8-103-12.03-115-42.03Z"/>
  <path stroke="#000" stroke-width="5" d="M172.5 45.5c0 13.468-5.423 23.613-14.128 30.45-8.774 6.891-21.06 10.55-34.872 10.55-13.812 0-26.098-3.659-34.872-10.55C79.923 69.113 74.5 58.968 74.5 45.5c0-13.454 5.41-23.202 14.078-29.661C97.338 9.31 109.634 6 123.5 6c13.866 0 26.161 3.31 34.922 9.839 8.669 6.46 14.078 16.207 14.078 29.661Z"/>
  <path stroke="#000" stroke-width="4" d="m101 56.715 9.636-25.113L120.52 78l13.548-65L147 56.715"/>
</svg>
